<svg width="573" height="219" viewBox="0 0 573 219" fill="none" xmlns="http://www.w3.org/2000/svg">
<path d="M48.12 4.76C40.0133 4.76 32.7067 6.68 26.2 10.52C14.1467 17.7733 7.05333 29.1867 4.92 44.76C4.6 47.2133 4.44 50.2 4.44 53.72C4.44 57.24 5.08 61.1867 6.36 65.56C8.17333 72.0667 11.7467 77.9333 17.08 83.16C22.3067 88.3867 28.8667 91.96 36.76 93.88C40.0667 81.72 45.08 70.36 51.8 59.8C58.52 49.1333 67 40.28 77.24 33.24C87.48 26.0933 98.2533 22.52 109.56 22.52C119.373 22.52 125.347 26.4667 127.48 34.36C128.12 36.3867 128.44 38.52 128.44 40.76C128.44 47.2667 125.987 54.4667 121.08 62.36C113.4 75.0533 102.2 84.7067 87.48 91.32C75.96 96.5467 63.5333 99.16 50.2 99.16H47C44.76 107.053 43.64 114.68 43.64 122.04C43.64 135.907 47.16 145.507 54.2 150.84C55.16 142.093 57.4 133.88 60.92 126.2C64.44 118.52 69.2933 112.067 75.48 106.84C81.7733 101.613 88.7067 99 96.28 99C105.027 99 110.467 102.893 112.6 110.68C113.133 112.813 113.4 115 113.4 117.24C113.4 123.107 111.533 129.4 107.8 136.12C101.933 146.467 93.7733 153.507 83.32 157.24C75.7467 159.8 68.2267 160.227 60.76 158.52C60.6533 159.907 60.6 161.293 60.6 162.68C60.6 170.467 62.2533 177.027 65.56 182.36C69.2933 188.653 75.3733 191.8 83.8 191.8C83.48 193.827 81.72 194.84 78.52 194.84C69.9867 194.84 63.6933 191.32 59.64 184.28C55.6933 177.24 53.72 168.92 53.72 159.32C53.72 158.253 53.72 157.24 53.72 156.28C44.5467 152.333 38.4667 144.76 35.48 133.56C33.9867 128.227 33.24 122.573 33.24 116.6C33.24 110.627 34.0933 104.28 35.8 97.56C28.3333 95.8533 21.88 92.76 16.44 88.28C11 83.8 7.10667 78.68 4.76 72.92C1.66667 65.3467 0.120001 58.36 0.120001 51.96C0.120001 45.56 1.13333 39.5333 3.16 33.88C5.18667 28.2267 8.12 22.8933 11.96 17.88C15.6933 12.76 20.76 8.65334 27.16 5.56001C33.56 2.36001 40.6 0.760008 48.28 0.760008C63.4267 0.760008 73.7733 6.62667 79.32 18.36C79.96 19.64 79.2133 20.4933 77.08 20.92C74.52 21.1333 72.92 20.5467 72.28 19.16C69.08 9.56 61.0267 4.76 48.12 4.76ZM107.48 26.68C101.4 26.68 95.2133 28.7067 88.92 32.76C82.7333 36.7067 77.08 41.9333 71.96 48.44C61.08 62.3067 53.1333 77.9333 48.12 95.32H50.36C71.2667 95.32 88.8667 88.6533 103.16 75.32C112.653 66.4667 118.467 56.92 120.6 46.68C121.027 44.44 121.24 42.4133 121.24 40.6C121.24 35.0533 119.213 31.0533 115.16 28.6C113.133 27.32 110.573 26.68 107.48 26.68ZM97.72 103.32C89.08 103.32 81.1867 108.6 74.04 119.16C67 129.72 62.68 141.453 61.08 154.36C63.8533 155.213 66.7867 155.64 69.88 155.64C81.6133 155.64 91.48 150.52 99.48 140.28C105.773 132.387 108.92 124.6 108.92 116.92C108.92 109.24 106.147 104.813 100.6 103.64C99.7467 103.427 98.7867 103.32 97.72 103.32ZM136.957 151.16C128.53 151.16 124.317 144.813 124.317 132.12C124.317 124.76 126.237 116.707 130.077 107.96C135.41 96.12 142.183 88.3867 150.397 84.76C153.277 83.5867 156.157 83 159.037 83C162.023 83 164.37 83.8533 166.077 85.56C167.783 87.2667 168.637 89.1867 168.637 91.32C168.637 92.28 168.103 92.76 167.037 92.76C166.077 92.6533 165.597 92.12 165.597 91.16C165.597 90.2 165.063 89.3467 163.997 88.6C163.037 87.7467 161.597 87.32 159.677 87.32C152.957 87.32 146.877 93.3467 141.437 105.4C136.317 116.6 133.757 127.213 133.757 137.24C133.757 143.427 135.09 146.52 137.757 146.52C140.53 146.52 143.837 144.227 147.677 139.64C151.623 134.947 155.25 129.507 158.557 123.32C165.703 110.307 169.917 101.933 171.197 98.2C172.477 94.4667 173.863 92.6 175.357 92.6C178.023 92.6 179.357 94.84 179.357 99.32C179.357 100.707 179.197 102.307 178.877 104.12C175.357 121.187 173.437 131.053 173.117 133.72C172.903 136.387 172.797 138.307 172.797 139.48C172.797 144.6 174.023 147.16 176.477 147.16C179.25 147.16 183.143 143.48 188.157 136.12C193.17 128.76 197.49 121.4 201.117 114.04L206.557 103H210.877C210.237 104.28 209.383 106.04 208.317 108.28C207.357 110.413 205.383 114.307 202.397 119.96C199.41 125.507 196.53 130.413 193.757 134.68C191.09 138.947 188.05 142.84 184.637 146.36C181.33 149.773 178.45 151.48 175.997 151.48C168.103 151.48 164.157 145.72 164.157 134.2C164.157 130.36 164.583 125.88 165.437 120.76H164.317C153.437 141.027 144.317 151.16 136.957 151.16ZM201.825 81.08C201.825 79.9067 202.571 79.32 204.065 79.32H212.385C212.918 77.1867 213.611 74.52 214.465 71.32L216.705 63C217.345 60.5467 217.878 58.3067 218.305 56.28C218.838 54.2533 219.798 53.24 221.185 53.24C222.998 53.24 224.278 54.6267 225.025 57.4C225.345 58.5733 225.505 60.0133 225.505 61.72C225.505 63.4267 225.185 65.6133 224.545 68.28L221.505 79.32H231.425C232.385 79.32 233.025 79.64 233.345 80.28C233.771 80.92 233.771 81.56 233.345 82.2C233.025 82.7333 232.385 83 231.425 83H220.545C213.931 107.853 210.625 125.453 210.625 135.8C210.625 143.373 212.331 147.16 215.745 147.16C218.518 147.16 222.411 143.48 227.425 136.12C232.438 128.76 236.758 121.4 240.385 114.04L245.825 103H250.145C249.505 104.28 248.651 106.04 247.585 108.28C246.625 110.413 244.651 114.307 241.665 119.96C238.678 125.507 235.798 130.413 233.025 134.68C230.358 138.947 227.318 142.84 223.905 146.36C220.598 149.773 217.505 151.48 214.625 151.48C211.745 151.48 209.238 150.573 207.105 148.76C205.078 146.84 203.798 144.173 203.265 140.76C202.625 137.24 202.305 133.667 202.305 130.04C202.305 121.613 205.291 105.933 211.265 83H204.065C203.211 83 202.625 82.7867 202.305 82.36C201.985 81.8267 201.825 81.4 201.825 81.08ZM291.998 84.6C287.838 98.4667 285.758 109.507 285.758 117.72C285.758 137.027 291.304 146.68 302.398 146.68C309.331 146.68 316.531 142.413 323.998 133.88C325.491 125.453 326.504 119.587 327.038 116.28C327.571 112.867 328.158 109.453 328.798 106.04C329.544 102.52 330.184 99.8 330.718 97.88C331.251 95.8533 331.891 93.56 332.638 91C333.384 88.44 334.184 86.4667 335.038 85.08C335.891 83.6933 336.851 82.3067 337.918 80.92C339.838 78.36 342.398 77.08 345.598 77.08C349.331 77.08 351.198 79.64 351.198 84.76C351.198 86.5733 350.984 88.6533 350.558 91C348.318 102.84 342.718 115.16 333.758 127.96C331.198 150.36 327.198 167.747 321.758 180.12C316.424 192.28 309.918 201.293 302.238 207.16C292.851 214.413 281.331 218.04 267.678 218.04C251.784 218.04 240.638 212.547 234.238 201.56C231.144 196.227 229.598 191.107 229.598 186.2C229.598 181.4 230.184 177.08 231.358 173.24C234.131 163.64 239.411 156.867 247.198 152.92C250.931 151.107 254.931 150.2 259.198 150.2C270.504 150.2 278.238 154.573 282.398 163.32C284.211 167.16 285.118 170.84 285.118 174.36C285.118 177.88 284.478 181.24 283.198 184.44C280.424 191.8 275.891 195.48 269.598 195.48C268.638 195.48 267.784 195.213 267.038 194.68C266.291 194.147 265.704 193.4 265.278 192.44C270.078 192.44 273.811 189.187 276.478 182.68C277.758 179.48 278.398 176.227 278.398 172.92C278.398 169.72 277.651 166.413 276.158 163C273.278 156.493 267.464 153.24 258.718 153.24C249.971 153.24 243.091 157.453 238.078 165.88C234.664 171.533 232.958 177.453 232.958 183.64C232.958 186.2 233.278 188.813 233.918 191.48C236.158 201.507 241.918 208.28 251.198 211.8C255.358 213.4 260.638 214.2 267.038 214.2C273.438 214.2 279.624 212.707 285.598 209.72C291.678 206.84 296.638 203.16 300.478 198.68C304.424 194.307 307.891 188.653 310.878 181.72C313.971 174.893 316.371 168.387 318.078 162.2C319.784 156.013 321.384 148.813 322.878 140.6C315.624 147.32 308.691 150.68 302.078 150.68C295.571 150.68 290.131 148.76 285.758 144.92C281.491 140.973 278.771 136.28 277.598 130.84C276.424 125.4 275.838 120.12 275.838 115C275.838 104.973 277.598 94.36 281.118 83.16C274.931 81.6667 269.811 78.9467 265.758 75C261.811 70.9467 259.251 66.8933 258.078 62.84C257.011 58.7867 256.478 55.4267 256.478 52.76C256.478 38.1467 261.544 27.5867 271.678 21.08C276.051 18.2 280.904 16.76 286.238 16.76C287.838 16.76 288.691 17.4 288.798 18.68L288.958 19.32C283.731 19.32 278.984 20.6 274.718 23.16C266.504 28.0667 261.598 35.7467 259.998 46.2C259.784 48.0133 259.678 50.0933 259.678 52.44C259.678 54.68 260.158 57.6133 261.118 61.24C262.078 64.8667 264.424 68.4933 268.158 72.12C271.891 75.64 276.584 78.0933 282.238 79.48C287.891 63.16 295.838 49.3467 306.078 38.04C316.318 26.6267 327.304 20.92 339.038 20.92C347.891 20.92 352.318 25.56 352.318 34.84C352.318 41.4533 349.598 48.76 344.158 56.76C336.371 68.3867 326.024 76.5467 313.118 81.24C306.718 83.48 300.104 84.6 293.278 84.6H291.998ZM337.278 24.6C329.171 24.6 321.064 30.0933 312.958 41.08C304.958 52.0667 298.398 65.2933 293.278 80.76H293.438C309.011 80.76 322.238 74.8933 333.118 63.16C341.758 53.6667 346.078 44.1733 346.078 34.68C346.078 29.4533 344.104 26.2 340.158 24.92C339.304 24.7067 338.344 24.6 337.278 24.6ZM344.798 82.04C342.131 82.04 340.158 84.6533 338.878 89.88C337.598 95.1067 336.638 100.973 335.998 107.48C335.358 113.88 334.984 117.507 334.878 118.36C341.491 106.84 345.384 96.8667 346.558 88.44C346.771 87.3733 346.878 86.4667 346.878 85.72C346.878 83.2667 346.184 82.04 344.798 82.04ZM365.198 151C362.211 151 360.718 148.707 360.718 144.12C360.718 141.667 363.704 123.8 369.677 90.52C370.104 88.28 371.064 87.16 372.557 87.16C374.477 87.16 375.917 88.5467 376.877 91.32C377.411 92.8133 377.677 94.4667 377.677 96.28C377.677 97.9867 377.464 99.8533 377.038 101.88L374.477 115H375.278C384.451 93.6667 392.877 83 400.558 83C404.824 83 407.651 85.08 409.037 89.24C409.571 90.84 409.837 92.7067 409.837 94.84C409.837 96.8667 409.251 99.1067 408.077 101.56C406.051 105.72 403.011 107.8 398.958 107.8C398.104 107.8 397.411 107.587 396.878 107.16C396.451 106.733 396.184 106.147 396.077 105.4C396.931 105.4 398.051 103.853 399.437 100.76C400.824 97.56 401.624 94.6267 401.837 91.96C402.051 89.2933 401.144 87.7467 399.117 87.32C395.384 87.32 390.958 92.1733 385.838 101.88C380.717 111.587 376.611 120.867 373.517 129.72C370.424 138.573 368.611 144.333 368.077 147C367.544 149.667 366.584 151 365.198 151ZM423.48 151.16C415.053 151.16 410.84 144.813 410.84 132.12C410.84 124.76 412.76 116.707 416.6 107.96C421.933 96.12 428.707 88.3867 436.92 84.76C439.8 83.5867 442.68 83 445.56 83C448.547 83 450.893 83.8533 452.6 85.56C454.307 87.2667 455.16 89.1867 455.16 91.32C455.16 92.28 454.627 92.76 453.56 92.76C452.6 92.6533 452.12 92.12 452.12 91.16C452.12 90.2 451.587 89.3467 450.52 88.6C449.56 87.7467 448.12 87.32 446.2 87.32C439.48 87.32 433.4 93.3467 427.96 105.4C422.84 116.6 420.28 127.213 420.28 137.24C420.28 143.427 421.613 146.52 424.28 146.52C427.053 146.52 430.36 144.227 434.2 139.64C438.147 134.947 441.773 129.507 445.08 123.32C452.227 110.307 456.44 101.933 457.72 98.2C459 94.4667 460.387 92.6 461.88 92.6C464.547 92.6 465.88 94.84 465.88 99.32C465.88 100.707 465.72 102.307 465.4 104.12C461.88 121.187 459.96 131.053 459.64 133.72C459.427 136.387 459.32 138.307 459.32 139.48C459.32 144.6 460.547 147.16 463 147.16C465.773 147.16 469.667 143.48 474.68 136.12C479.693 128.76 484.013 121.4 487.64 114.04L493.08 103H497.4C496.76 104.28 495.907 106.04 494.84 108.28C493.88 110.413 491.907 114.307 488.92 119.96C485.933 125.507 483.053 130.413 480.28 134.68C477.613 138.947 474.573 142.84 471.16 146.36C467.853 149.773 464.973 151.48 462.52 151.48C454.627 151.48 450.68 145.72 450.68 134.2C450.68 130.36 451.107 125.88 451.96 120.76H450.84C439.96 141.027 430.84 151.16 423.48 151.16ZM490.428 151C487.441 151 485.948 148.707 485.948 144.12C485.948 141.667 488.935 123.8 494.908 90.52C495.228 88.28 496.188 87.16 497.788 87.16C499.708 87.16 501.148 88.5467 502.108 91.32C502.641 92.8133 502.908 94.4667 502.908 96.28C502.908 97.9867 502.695 99.8533 502.268 101.88L499.868 114.04H500.828C510.215 92.92 519.281 82.36 528.028 82.36C531.015 82.36 533.361 83.4267 535.068 85.56C536.881 87.6933 537.788 90.2533 537.788 93.24C537.788 98.7867 536.935 105.72 535.228 114.04H535.868C544.935 94.3067 553.841 84.44 562.588 84.44C565.468 84.44 567.815 85.5067 569.628 87.64C571.441 89.7733 572.348 92.6 572.348 96.12C572.348 99.64 570.961 107.107 568.188 118.52C565.521 129.933 564.188 137.987 564.188 142.68C564.188 149.613 565.468 153.08 568.028 153.08C568.028 153.827 567.548 154.573 566.588 155.32C565.628 156.067 564.508 156.44 563.228 156.44C557.041 156.44 553.948 151.587 553.948 141.88C553.948 135.8 555.495 127.053 558.588 115.64C561.681 104.12 563.228 96.76 563.228 93.56C563.228 90.2533 562.161 88.6 560.028 88.6C556.081 88.6 551.441 93.4 546.108 103C540.881 112.493 536.668 121.613 533.468 130.36C530.375 139.107 528.561 144.76 528.028 147.32C527.495 149.773 526.535 151 525.148 151C522.161 151 520.668 148.707 520.668 144.12C520.668 142.413 521.575 136.387 523.388 126.04C526.908 107.053 528.668 95.7467 528.668 92.12C528.668 88.3867 527.601 86.52 525.468 86.52C522.588 86.52 519.228 89.5067 515.388 95.48C511.548 101.347 508.081 108.173 504.988 115.96C498.268 132.387 494.321 143 493.148 147.8C492.721 149.933 491.815 151 490.428 151Z" fill="#BF616A"/>
<path d="M161.56 63.8546C163.613 49.8942 173.879 20.977 198.518 16.9917" stroke="#BF616A" stroke-width="6" stroke-linecap="round" stroke-linejoin="round"/>
<path d="M149.529 70.3965C146.119 56.7041 144.617 26.0555 165.889 13" stroke="#BF616A" stroke-width="6" stroke-linecap="round" stroke-linejoin="round"/>
<path d="M173.56 69.8365C180.183 57.3764 199.564 33.5866 224.11 38.1076" stroke="#BF616A" stroke-width="6" stroke-linecap="round" stroke-linejoin="round"/>
</svg>
